<svg xmlns="http://www.w3.org/2000/svg" xmlns:xlink="http://www.w3.org/1999/xlink" width="500" zoomAndPan="magnify" viewBox="0 0 375 374.999991" height="500" preserveAspectRatio="xMidYMid meet" version="1.0"><defs><clipPath id="02b1bd1ae1"><path d="M 57 25 L 350 25 L 350 318 L 57 318 Z M 57 25 " clip-rule="nonzero"/></clipPath><clipPath id="37ebda1271"><path d="M 287.4375 0.0234375 L 374.980469 87.566406 L 119.195312 343.351562 L 31.652344 255.8125 Z M 287.4375 0.0234375 " clip-rule="nonzero"/></clipPath><clipPath id="6eba33ade3"><path d="M 331.210938 43.796875 C 342.820312 55.40625 349.339844 71.148438 349.339844 87.566406 C 349.339844 103.984375 342.820312 119.730469 331.210938 131.335938 L 163.078125 299.472656 C 151.46875 311.078125 135.722656 317.601562 119.304688 317.601562 C 102.890625 317.601562 87.144531 311.078125 75.535156 299.472656 C 63.925781 287.863281 57.40625 272.117188 57.40625 255.699219 C 57.40625 239.28125 63.925781 223.539062 75.535156 211.929688 L 243.667969 43.796875 C 255.277344 32.1875 271.023438 25.664062 287.4375 25.664062 C 303.855469 25.664062 319.601562 32.1875 331.210938 43.796875 Z M 331.210938 43.796875 " clip-rule="nonzero"/></clipPath><clipPath id="4eaa69a0a6"><path d="M 0.359375 0.441406 L 292.441406 0.441406 L 292.441406 292.761719 L 0.359375 292.761719 Z M 0.359375 0.441406 " clip-rule="nonzero"/></clipPath><clipPath id="b94ca55083"><path d="M 230.4375 -24.976562 L 317.980469 62.566406 L 62.195312 318.351562 L -25.347656 230.8125 Z M 230.4375 -24.976562 " clip-rule="nonzero"/></clipPath><clipPath id="6cad732a00"><path d="M 274.210938 18.796875 C 285.820312 30.40625 292.339844 46.148438 292.339844 62.566406 C 292.339844 78.984375 285.820312 94.730469 274.210938 106.335938 L 106.078125 274.472656 C 94.46875 286.078125 78.722656 292.601562 62.304688 292.601562 C 45.890625 292.601562 30.144531 286.078125 18.535156 274.472656 C 6.925781 262.863281 0.40625 247.117188 0.40625 230.699219 C 0.40625 214.28125 6.925781 198.539062 18.535156 186.929688 L 186.667969 18.796875 C 198.277344 7.1875 214.023438 0.664062 230.4375 0.664062 C 246.855469 0.664062 262.601562 7.1875 274.210938 18.796875 Z M 274.210938 18.796875 " clip-rule="nonzero"/></clipPath><clipPath id="ffb47fa5cd"><rect x="0" width="293" y="0" height="293"/></clipPath><clipPath id="ab20258422"><path d="M 1 13.449219 L 362.578125 13.449219 L 362.578125 137.253906 L 1 137.253906 Z M 1 13.449219 " clip-rule="nonzero"/></clipPath><clipPath id="3a28ca273a"><path d="M 362.578125 75.351562 C 362.578125 91.769531 356.058594 107.515625 344.449219 119.125 C 332.839844 130.730469 317.09375 137.253906 300.679688 137.253906 L 62.902344 137.253906 C 46.484375 137.253906 30.738281 130.730469 19.132812 119.125 C 7.523438 107.515625 1 91.769531 1 75.351562 C 1 58.933594 7.523438 43.191406 19.132812 31.582031 C 30.738281 19.972656 46.484375 13.449219 62.902344 13.449219 L 300.679688 13.449219 C 317.09375 13.449219 332.839844 19.972656 344.449219 31.582031 C 356.058594 43.191406 362.578125 58.933594 362.578125 75.351562 Z M 362.578125 75.351562 " clip-rule="nonzero"/></clipPath><clipPath id="fe77062ad0"><path d="M 0 0.449219 L 361.578125 0.449219 L 361.578125 124.253906 L 0 124.253906 Z M 0 0.449219 " clip-rule="nonzero"/></clipPath><clipPath id="65caa57ac2"><path d="M 361.578125 62.351562 C 361.578125 78.769531 355.058594 94.515625 343.449219 106.125 C 331.839844 117.730469 316.09375 124.253906 299.679688 124.253906 L 61.902344 124.253906 C 45.484375 124.253906 29.738281 117.730469 18.132812 106.125 C 6.523438 94.515625 0 78.769531 0 62.351562 C 0 45.933594 6.523438 30.191406 18.132812 18.582031 C 29.738281 6.972656 45.484375 0.449219 61.902344 0.449219 L 299.679688 0.449219 C 316.09375 0.449219 331.839844 6.972656 343.449219 18.582031 C 355.058594 30.191406 361.578125 45.933594 361.578125 62.351562 Z M 361.578125 62.351562 " clip-rule="nonzero"/></clipPath><clipPath id="6e369d6fc1"><rect x="0" width="362" y="0" height="125"/></clipPath><clipPath id="f6357db14a"><path d="M 238.828125 13.421875 L 362.628906 13.421875 L 362.628906 375 L 238.828125 375 Z M 238.828125 13.421875 " clip-rule="nonzero"/></clipPath><clipPath id="2593ec4289"><path d="M 300.726562 13.421875 C 317.144531 13.421875 332.890625 19.941406 344.5 31.550781 C 356.109375 43.160156 362.628906 58.90625 362.628906 75.324219 L 362.628906 313.097656 C 362.628906 329.515625 356.109375 345.261719 344.5 356.871094 C 332.890625 368.476562 317.144531 375 300.726562 375 C 284.3125 375 268.566406 368.476562 256.957031 356.871094 C 245.347656 345.261719 238.828125 329.515625 238.828125 313.097656 L 238.828125 75.324219 C 238.828125 58.90625 245.347656 43.160156 256.957031 31.550781 C 268.566406 19.941406 284.3125 13.421875 300.726562 13.421875 Z M 300.726562 13.421875 " clip-rule="nonzero"/></clipPath><clipPath id="61390ef901"><path d="M 0.828125 0.421875 L 124.628906 0.421875 L 124.628906 362 L 0.828125 362 Z M 0.828125 0.421875 " clip-rule="nonzero"/></clipPath><clipPath id="784706e1f1"><path d="M 62.726562 0.421875 C 79.144531 0.421875 94.890625 6.941406 106.5 18.550781 C 118.109375 30.160156 124.628906 45.90625 124.628906 62.324219 L 124.628906 300.097656 C 124.628906 316.515625 118.109375 332.261719 106.5 343.871094 C 94.890625 355.476562 79.144531 362 62.726562 362 C 46.3125 362 30.566406 355.476562 18.957031 343.871094 C 7.347656 332.261719 0.828125 316.515625 0.828125 300.097656 L 0.828125 62.324219 C 0.828125 45.90625 7.347656 30.160156 18.957031 18.550781 C 30.566406 6.941406 46.3125 0.421875 62.726562 0.421875 Z M 62.726562 0.421875 " clip-rule="nonzero"/></clipPath><clipPath id="5ef8f05968"><rect x="0" width="125" y="0" height="362"/></clipPath><clipPath id="e5b6fe85a0"><rect x="0" width="375" y="0" height="375"/></clipPath></defs><g><g clip-path="url(#e5b6fe85a0)"><g clip-path="url(#02b1bd1ae1)"><g clip-path="url(#37ebda1271)"><g clip-path="url(#6eba33ade3)"><g transform="matrix(1, 0, 0, 1, 57, 25)"><g clip-path="url(#ffb47fa5cd)"><g clip-path="url(#4eaa69a0a6)"><g clip-path="url(#b94ca55083)"><g clip-path="url(#6cad732a00)"><path fill="#0047ff" d="M 230.4375 -24.976562 L 317.980469 62.566406 L 62.195312 318.351562 L -25.347656 230.8125 Z M 230.4375 -24.976562 " fill-opacity="1" fill-rule="nonzero"/></g></g></g></g></g></g></g></g><g clip-path="url(#ab20258422)"><g clip-path="url(#3a28ca273a)"><g transform="matrix(1, 0, 0, 1, 1, 13)"><g clip-path="url(#6e369d6fc1)"><g clip-path="url(#fe77062ad0)"><g clip-path="url(#65caa57ac2)"><path fill="#0047ff" d="M 361.578125 0.449219 L 361.578125 124.253906 L -0.15625 124.253906 L -0.15625 0.449219 Z M 361.578125 0.449219 " fill-opacity="1" fill-rule="nonzero"/></g></g></g></g></g></g><g clip-path="url(#f6357db14a)"><g clip-path="url(#2593ec4289)"><g transform="matrix(1, 0, 0, 1, 238, 13)"><g clip-path="url(#5ef8f05968)"><g clip-path="url(#61390ef901)"><g clip-path="url(#784706e1f1)"><path fill="#0047ff" d="M 0.828125 0.421875 L 124.628906 0.421875 L 124.628906 362.15625 L 0.828125 362.15625 Z M 0.828125 0.421875 " fill-opacity="1" fill-rule="nonzero"/></g></g></g></g></g></g></g></g></svg>